<svg xmlns="http://www.w3.org/2000/svg" viewBox="0 0 48 48" width="48" height="48">
  <defs>
    <linearGradient id="leafGradient" x1="50%" y1="0%" x2="50%" y2="100%">
      <stop offset="0%" stop-color="#4CAF50" />
      <stop offset="100%" stop-color="#388E3C" />
    </linearGradient>
  </defs>
  <path
    d="M24 2C24 2 14 16 14 24C14 32 24 44 24 44C24 44 34 32 34 24C34 16 24 2 24 2Z"
    fill="url(#leafGradient)"
  />
  <path
    d="M23.5 40C23.5 40 23.5 30 23.5 25C23.5 20 24.5 15 24.5 15C24.5 15 25.5 20 25.5 25C25.5 30 25.5 40 25.5 40C25.5 40 24.5 41 23.5 40Z"
    fill="#1B5E20"
  />
</svg>
